<?xml version="1.0" encoding="UTF-8"?>
<svg id="Calque_1" xmlns="http://www.w3.org/2000/svg" version="1.1" xmlns:xlink="http://www.w3.org/1999/xlink" viewBox="0 0 595.28 200.28">
  <!-- Generator: Adobe Illustrator 29.0.0, SVG Export Plug-In . SVG Version: 2.1.0 Build 186)  -->
  <defs>
    <style>
      .st0 {
        fill: url(#Dégradé_sans_nom_246);
      }

      .st1 {
        fill: url(#Dégradé_sans_nom_243);
      }

      .st2 {
        fill: url(#Dégradé_sans_nom_241);
      }

      .st3 {
        fill: url(#Dégradé_sans_nom_43);
      }

      .st4 {
        fill: url(#Dégradé_sans_nom_42);
      }

      .st5 {
        fill: url(#Orange_Jaune);
      }

      .st6 {
        fill: url(#Dégradé_sans_nom_244);
      }

      .st7 {
        fill: url(#Dégradé_sans_nom_24);
      }

      .st8 {
        fill: url(#Dégradé_sans_nom_44);
      }

      .st9 {
        fill: url(#Dégradé_sans_nom_245);
      }

      .st10 {
        fill: url(#Dégradé_sans_nom_247);
      }

      .st11 {
        fill: url(#Dégradé_sans_nom_242);
      }

      .st12 {
        fill: url(#Dégradé_sans_nom_248);
      }
    </style>
    <linearGradient id="Dégradé_sans_nom_43" data-name="Dégradé sans nom 43" x1="22.41" y1="101.65" x2="123.78" y2="101.65" gradientUnits="userSpaceOnUse">
      <stop offset="0" stop-color="#096b30"/>
      <stop offset="1" stop-color="#17331b"/>
    </linearGradient>
    <linearGradient id="Dégradé_sans_nom_42" data-name="Dégradé sans nom 42" x1="84.09" y1="100.13" x2="162.59" y2="100.13" gradientUnits="userSpaceOnUse">
      <stop offset="0" stop-color="#e96e08"/>
      <stop offset="1" stop-color="#e9ca00"/>
    </linearGradient>
    <linearGradient id="Dégradé_sans_nom_44" data-name="Dégradé sans nom 44" x1="119.22" y1="100.24" x2="194.97" y2="100.24" gradientUnits="userSpaceOnUse">
      <stop offset="0" stop-color="#0d6b30"/>
      <stop offset="1" stop-color="#17331b"/>
    </linearGradient>
    <linearGradient id="Dégradé_sans_nom_24" data-name="Dégradé sans nom 24" x1="204.18" y1="103.62" x2="243.07" y2="103.62" gradientUnits="userSpaceOnUse">
      <stop offset="0" stop-color="#173e1e"/>
      <stop offset="1" stop-color="#096b30"/>
    </linearGradient>
    <linearGradient id="Dégradé_sans_nom_241" data-name="Dégradé sans nom 24" x1="249.37" x2="285.2" xlink:href="#Dégradé_sans_nom_24"/>
    <linearGradient id="Dégradé_sans_nom_242" data-name="Dégradé sans nom 24" x1="292.66" y1="103.98" x2="324.63" y2="103.98" xlink:href="#Dégradé_sans_nom_24"/>
    <linearGradient id="Dégradé_sans_nom_243" data-name="Dégradé sans nom 24" x1="343.36" x2="382.26" xlink:href="#Dégradé_sans_nom_24"/>
    <linearGradient id="Dégradé_sans_nom_244" data-name="Dégradé sans nom 24" x1="386.2" y1="115.22" x2="416.66" y2="115.22" xlink:href="#Dégradé_sans_nom_24"/>
    <linearGradient id="Dégradé_sans_nom_245" data-name="Dégradé sans nom 24" x1="421.64" y1="109.4" x2="451.32" y2="109.4" xlink:href="#Dégradé_sans_nom_24"/>
    <linearGradient id="Dégradé_sans_nom_246" data-name="Dégradé sans nom 24" x1="457.67" y1="109.43" x2="485.49" y2="109.43" xlink:href="#Dégradé_sans_nom_24"/>
    <linearGradient id="Dégradé_sans_nom_247" data-name="Dégradé sans nom 24" x1="491.75" y1="109.37" x2="521.27" y2="109.37" xlink:href="#Dégradé_sans_nom_24"/>
    <linearGradient id="Dégradé_sans_nom_248" data-name="Dégradé sans nom 24" x1="523.1" y1="115.22" x2="552.64" y2="115.22" xlink:href="#Dégradé_sans_nom_24"/>
    <linearGradient id="Orange_Jaune" data-name="Orange, Jaune" x1="516.82" y1="60.32" x2="552.53" y2="60.32" gradientTransform="translate(-1.46 162.16) rotate(-16.35)" gradientUnits="userSpaceOnUse">
      <stop offset="0" stop-color="#ffef26"/>
      <stop offset=".02" stop-color="#fee921"/>
      <stop offset=".1" stop-color="#fdd70e"/>
      <stop offset=".19" stop-color="#fdcb03"/>
      <stop offset=".28" stop-color="#fdc800"/>
      <stop offset=".67" stop-color="#f18f34"/>
      <stop offset=".89" stop-color="#e95f32"/>
      <stop offset="1" stop-color="#e3312d"/>
    </linearGradient>
  </defs>
  <path class="st3" d="M123.78,133.02H31.61c-7.77,0-12.03-9-7.07-14.96l6.68-8.02.09-.11,30.56-36.98c2.93-3.55,8.38-3.57,11.35-.05l6.01,7.14c2.07,2.46,2.08,6.03.04,8.51l-14.42,17.45c-1.23,1.49-.17,3.74,1.78,3.74h27.36c6.48,0,12.63,2.86,16.8,7.8l13.01,15.47Z"/>
  <path class="st4" d="M162.59,133.02h-23.11c-5.09,0-9.93-2.24-13.21-6.12l-40.48-47.92c-3.93-4.65-.6-11.74,5.5-11.74h9.66c3.85,0,7.5,1.69,9.98,4.62l51.66,61.16Z"/>
  <path class="st8" d="M194.97,100.8c0,3.46-.53,6.81-1.52,9.94-3.48,11.12-12.66,19.7-24.09,22.3l-12.45-14.74c-2.76-3.27-.36-8.26,3.94-8.16h0c.7.17,4.75.25,5.5.25.61,0,1.22-.06,1.8-.17,4.35-.83,7.63-4.63,7.63-9.2,0-4.18-2.75-7.71-6.55-8.92-.91-.29-1.88-.45-2.88-.45-.86,0-9.38-.3-10.18-.08l-16.15-.17c-3.73-.04-7.27-1.7-9.67-4.54l-10.04-11.88c-2.55-3.02-.34-7.62,3.63-7.54l33.12.68h0l9.16.19c1.72.03,3.43.27,5.08.75,11.1,3.26,19.77,12.24,22.65,23.55.66,2.62,1.02,5.37,1.02,8.19Z"/>
  <g>
    <path class="st7" d="M234.01,119.84l-2-5.26h-17.04l-2,5.38c-.78,2.1-1.45,3.51-2,4.25-.55.73-1.46,1.1-2.72,1.1-1.07,0-2.01-.39-2.83-1.17-.82-.78-1.23-1.67-1.23-2.66,0-.57.1-1.16.29-1.77.19-.61.5-1.46.94-2.55l10.72-27.22c.3-.78.67-1.72,1.1-2.82.43-1.1.89-2.01,1.37-2.73.49-.72,1.12-1.31,1.92-1.76.79-.45,1.77-.67,2.93-.67s2.17.22,2.96.67c.79.45,1.43,1.03,1.92,1.73.49.71.9,1.46,1.23,2.27.33.81.76,1.89,1.27,3.25l10.95,27.05c.86,2.06,1.29,3.56,1.29,4.49s-.41,1.86-1.22,2.67c-.81.81-1.79,1.21-2.93,1.21-.67,0-1.24-.12-1.72-.36s-.88-.56-1.2-.97c-.32-.41-.67-1.04-1.04-1.89s-.69-1.6-.96-2.25ZM217.19,108.2h12.53l-6.32-17.3-6.21,17.3Z"/>
    <path class="st2" d="M254.57,82.66h11.07c2.88,0,5.35.27,7.41.8,2.06.53,3.93,1.53,5.6,3,4.37,3.74,6.55,9.42,6.55,17.04,0,2.52-.22,4.81-.66,6.89-.44,2.08-1.12,3.95-2.03,5.62s-2.09,3.16-3.52,4.47c-1.12,1.01-2.35,1.82-3.69,2.43-1.33.61-2.77,1.04-4.3,1.29-1.54.25-3.27.37-5.19.37h-11.07c-1.54,0-2.71-.23-3.49-.7-.78-.47-1.29-1.12-1.53-1.97-.24-.85-.36-1.95-.36-3.3v-30.74c0-1.83.41-3.15,1.23-3.97.82-.82,2.14-1.23,3.97-1.23ZM257.86,89.38v28.45h6.43c1.41,0,2.52-.04,3.32-.11s1.63-.27,2.49-.57c.86-.3,1.6-.73,2.23-1.29,2.84-2.4,4.26-6.54,4.26-12.41,0-4.14-.62-7.23-1.87-9.29-1.25-2.06-2.79-3.37-4.62-3.93-1.83-.56-4.04-.84-6.63-.84h-5.61Z"/>
    <path class="st11" d="M308.93,108.25h-7.78v11.87c0,1.7-.4,2.98-1.2,3.86s-1.81,1.32-3.03,1.32-2.31-.43-3.09-1.3c-.78-.87-1.17-2.14-1.17-3.82v-32.31c0-1.87.43-3.2,1.29-4,.86-.8,2.22-1.2,4.09-1.2h10.9c3.22,0,5.7.25,7.43.74,1.72.48,3.2,1.27,4.45,2.37,1.25,1.11,2.2,2.46,2.85,4.06.65,1.6.97,3.4.97,5.41,0,4.27-1.32,7.51-3.95,9.71s-6.55,3.3-11.75,3.3ZM306.87,89.04h-5.72v12.81h5.72c2,0,3.67-.21,5.02-.63,1.34-.42,2.37-1.11,3.07-2.06.71-.95,1.06-2.2,1.06-3.75,0-1.85-.54-3.36-1.63-4.52-1.22-1.24-3.73-1.86-7.52-1.86Z"/>
    <path class="st1" d="M373.19,119.84l-2-5.26h-17.04l-2,5.38c-.78,2.1-1.45,3.51-2,4.25-.55.73-1.46,1.1-2.72,1.1-1.07,0-2.01-.39-2.83-1.17-.82-.78-1.23-1.67-1.23-2.66,0-.57.09-1.16.29-1.77s.5-1.46.94-2.55l10.72-27.22c.3-.78.67-1.72,1.1-2.82.43-1.1.89-2.01,1.37-2.73.49-.72,1.12-1.31,1.92-1.76.79-.45,1.77-.67,2.93-.67s2.17.22,2.96.67c.79.45,1.43,1.03,1.92,1.73.49.71.9,1.46,1.23,2.27.33.81.76,1.89,1.27,3.25l10.95,27.05c.86,2.06,1.29,3.56,1.29,4.49s-.41,1.86-1.22,2.67c-.81.81-1.79,1.21-2.93,1.21-.67,0-1.24-.12-1.72-.36s-.88-.56-1.2-.97c-.32-.41-.67-1.04-1.04-1.89s-.69-1.6-.96-2.25ZM356.38,108.2h12.53l-6.32-17.3-6.21,17.3Z"/>
    <path class="st6" d="M416.66,99.27v22.68c0,2.59-.28,4.82-.83,6.69s-1.44,3.41-2.66,4.63c-1.22,1.22-2.82,2.13-4.79,2.72-1.97.59-4.43.89-7.36.89-2.69,0-5.09-.38-7.21-1.13s-3.75-1.73-4.89-2.92c-1.14-1.19-1.72-2.42-1.72-3.67,0-.95.32-1.73.97-2.33s1.43-.9,2.34-.9c1.14,0,2.15.5,3,1.52.42.51.85,1.03,1.3,1.56.45.52.94.97,1.49,1.34.54.37,1.2.65,1.96.83.76.18,1.64.27,2.63.27,2.02,0,3.59-.28,4.7-.84s1.9-1.35,2.35-2.36c.45-1.01.71-2.09.79-3.25s.13-3.01.17-5.56c-1.2,1.68-2.59,2.96-4.16,3.83s-3.45,1.32-5.62,1.32c-2.61,0-4.9-.67-6.85-2-1.95-1.33-3.46-3.2-4.5-5.6-1.05-2.4-1.57-5.18-1.57-8.32,0-2.34.32-4.46.96-6.35.64-1.89,1.55-3.48,2.73-4.78s2.54-2.27,4.09-2.93c1.54-.66,3.24-.99,5.09-.99,2.21,0,4.13.42,5.75,1.27,1.62.85,3.13,2.18,4.52,3.99v-1.06c0-1.35.33-2.4,1-3.15.67-.74,1.52-1.12,2.57-1.12,1.51,0,2.51.49,3,1.47.5.98.74,2.4.74,4.25ZM394.04,109.17c0,3.17.69,5.56,2.07,7.18,1.38,1.62,3.17,2.43,5.36,2.43,1.3,0,2.52-.35,3.67-1.04,1.15-.7,2.09-1.75,2.82-3.15.72-1.4,1.09-3.1,1.09-5.1,0-3.18-.7-5.66-2.1-7.44-1.4-1.77-3.25-2.66-5.53-2.66s-4.02.85-5.36,2.54c-1.34,1.7-2.02,4.11-2.02,7.23Z"/>
    <path class="st9" d="M444.88,111.34h-15.27c.02,1.77.38,3.34,1.07,4.69.7,1.35,1.62,2.37,2.77,3.06,1.15.69,2.43,1.03,3.82,1.03.93,0,1.79-.11,2.56-.33.77-.22,1.52-.56,2.25-1.03s1.39-.97,2-1.5c.61-.53,1.4-1.26,2.37-2.17.4-.34.97-.51,1.72-.51.8,0,1.45.22,1.95.66.5.44.74,1.06.74,1.86,0,.71-.28,1.53-.83,2.47-.55.94-1.39,1.85-2.5,2.72s-2.52,1.59-4.2,2.16c-1.69.57-3.63.86-5.82.86-5.01,0-8.91-1.43-11.7-4.29-2.78-2.86-4.17-6.74-4.17-11.64,0-2.31.34-4.45,1.03-6.42.69-1.97,1.69-3.66,3-5.08,1.32-1.41,2.94-2.49,4.86-3.25,1.92-.75,4.06-1.13,6.41-1.13,3.05,0,5.67.64,7.85,1.93,2.18,1.29,3.82,2.95,4.9,4.99,1.09,2.04,1.63,4.12,1.63,6.23,0,1.96-.56,3.24-1.69,3.82-1.12.58-2.71.87-4.75.87ZM429.61,106.91h14.16c-.19-2.67-.91-4.67-2.16-5.99-1.25-1.32-2.89-1.99-4.93-1.99s-3.54.67-4.79,2.02c-1.25,1.34-2.01,3.33-2.27,5.96Z"/>
    <path class="st0" d="M464.99,97.87v.94c1.37-1.81,2.87-3.14,4.5-3.99,1.63-.85,3.5-1.27,5.62-1.27s3.9.45,5.52,1.34,2.83,2.16,3.63,3.8c.51.95.85,1.98,1,3.09.15,1.11.23,2.52.23,4.23v14.53c0,1.56-.36,2.75-1.07,3.55s-1.64,1.2-2.79,1.2-2.11-.41-2.83-1.23-1.09-1.99-1.09-3.52v-13.01c0-2.57-.36-4.54-1.07-5.91-.71-1.36-2.14-2.04-4.28-2.04-1.39,0-2.66.41-3.8,1.24-1.14.83-1.98,1.97-2.52,3.42-.38,1.16-.57,3.34-.57,6.52v9.78c0,1.58-.37,2.77-1.1,3.56-.73.79-1.68,1.19-2.85,1.19s-2.05-.41-2.77-1.23-1.09-1.99-1.09-3.52v-22.56c0-1.49.32-2.6.97-3.33s1.54-1.1,2.66-1.1c.69,0,1.31.16,1.86.49s1,.81,1.33,1.46c.33.65.5,1.44.5,2.37Z"/>
    <path class="st10" d="M521.27,115.63c0,.97-.29,2.01-.87,3.12-.58,1.11-1.47,2.16-2.66,3.16s-2.69,1.81-4.5,2.42c-1.81.61-3.85.92-6.12.92-4.82,0-8.59-1.41-11.3-4.22-2.71-2.81-4.06-6.58-4.06-11.31,0-3.2.62-6.03,1.86-8.49s3.03-4.36,5.38-5.71c2.34-1.34,5.15-2.02,8.41-2.02,2.02,0,3.88.3,5.56.89,1.69.59,3.12,1.35,4.29,2.29s2.07,1.93,2.69,2.99c.62,1.06.93,2.04.93,2.96s-.35,1.73-1.04,2.37c-.7.65-1.54.97-2.53.97-.65,0-1.19-.17-1.62-.5-.43-.33-.91-.87-1.44-1.62-.95-1.45-1.95-2.54-2.99-3.26-1.04-.72-2.36-1.09-3.96-1.09-2.31,0-4.17.9-5.58,2.7-1.41,1.8-2.12,4.27-2.12,7.39,0,1.47.18,2.82.54,4.05s.89,2.28,1.57,3.15c.69.87,1.52,1.53,2.49,1.97.97.45,2.04.67,3.2.67,1.56,0,2.9-.36,4.02-1.09,1.12-.72,2.1-1.83,2.96-3.32.48-.88.99-1.56,1.54-2.06.55-.5,1.23-.74,2.03-.74.95,0,1.74.36,2.37,1.09.63.73.94,1.5.94,2.32Z"/>
    <path class="st12" d="M533.76,126.27l.71-1.75-9.61-24.19c-.59-1.39-.89-2.4-.89-3.03,0-.67.17-1.29.52-1.86.34-.57.81-1.03,1.42-1.37s1.22-.51,1.87-.51c1.12,0,1.97.36,2.54,1.07.57.72,1.08,1.74,1.52,3.07l6.61,19.22,6.26-17.87c.5-1.45.94-2.58,1.34-3.4.4-.82.82-1.37,1.27-1.66.45-.29,1.08-.43,1.9-.43.59,0,1.16.16,1.7.47.54.31.96.74,1.26,1.27.3.53.44,1.1.44,1.69-.08.36-.2.88-.37,1.54-.17.67-.38,1.34-.63,2.03l-10.18,26.65c-.88,2.34-1.74,4.18-2.57,5.52-.84,1.33-1.95,2.36-3.33,3.07-1.38.71-3.25,1.07-5.59,1.07s-4-.25-5.15-.74c-1.14-.5-1.72-1.4-1.72-2.72,0-.9.27-1.59.81-2.07.54-.49,1.35-.73,2.42-.73.42,0,.83.06,1.23.17.5.12.92.17,1.29.17.9,0,1.6-.13,2.12-.4.51-.27.98-.73,1.39-1.39.41-.66.88-1.63,1.42-2.9Z"/>
  </g>
  <text/>
  <polygon class="st5" points="524.22 54.68 515.79 89.38 529.05 74.49 550.06 79.33 524.22 54.68"/>
</svg>